<?xml version="1.0" encoding="utf-8"?>
<!-- Generator: Adobe Illustrator 27.1.1, SVG Export Plug-In . SVG Version: 6.00 Build 0)  -->
<svg version="1.1" id="Layer_1" xmlns="http://www.w3.org/2000/svg" xmlns:xlink="http://www.w3.org/1999/xlink" x="0px" y="0px"
	 viewBox="0 0 233.5 239.2" style="enable-background:new 0 0 233.5 239.2;" xml:space="preserve">
<style type="text/css">
	.st0{fill:#FFFFFF;}
	.st1{fill:#E67A20;}
	.st2{fill:none;stroke:#B78053;stroke-width:1.5;stroke-linecap:round;stroke-linejoin:round;stroke-miterlimit:10;}
	.st3{fill:#222222;}
</style>
<rect x="-657.5" y="15.7" class="st0" width="540" height="163.9"/>
<path class="st1" d="M-522.8,75.9c0-24.1-19.6-43.7-43.7-43.7c-24.1,0-43.7,19.6-43.7,43.7c0,24.1,19.6,43.7,43.7,43.7
	c5.1,0,10-0.9,14.6-2.5l0,0l19.4,4.6l-5.5-12.7C-528.7,101.1-522.8,89.2-522.8,75.9z"/>
<path class="st2" d="M-212.4-89.8c6.3-9.3,17.6-14.9,30.1-13.2c13.7,1.9,24.7,13.1,26.2,26.8c2.1,18.5-12.5,34.1-30.7,34.1
	c-5,0-10.2-1.2-14.7-3.3c-3.3-1.6-5.4-4.9-5.4-8.6v-21.3l0.5-0.9l3.3-5.9h32.5l3.1,5.8l0.6,1l0.1,25.9"/>
<path class="st2" d="M-191.4-76.6H-206"/>
<path class="st2" d="M-183.5-81.6l0.9,6.2v5.7l-4.2-1.9l-4.7,1.9v-6l1-6"/>
<path class="st2" d="M-211.2-101.3l-1.7,12l11-1.9"/>
<path class="st2" d="M-200-49.2h32.9"/>
<path class="st2" d="M-200-58.3h32.9"/>
<path class="st2" d="M-168.1-76.5h-14.4"/>
<image style="overflow:visible;" width="222" height="58" xlink:href="4445A638.jpg"  transform="matrix(1 0 0 1 -429.4288 -133.5872)">
</image>
<circle class="st0" cx="-566.5" cy="75.9" r="34"/>
<g>
	<g>
		<path class="st3" d="M-550.5,57.1c2.6,0.6,5,1.8,6.8,4c-2.5-1.5-5.1-2.1-8-1.5c-2.9,0.6-5.1,2.2-6.7,4.7c-2.3,3.7-1.9,8.6,0.9,12
			c3.2,3.8,7.5,4.5,13.3,2.2c0,0.4-0.3,0.5-0.5,0.7c-2.4,2.3-5.4,2.8-8.5,3.2c-3.1,0.4-6.1,0.7-9.2,1.2c-6,0.9-10.9,3.8-15,8.2
			c-1.9,2-4.2,3-7,2.9c-0.3,0-0.6,0.1-0.9-0.3c3.6-0.6,6.2-2.4,7.1-6c0.5-2,0.2-4-0.9-5.8c-2.4-4.1-6.7-4.7-12-1.6
			c0.4-1,1.1-1.6,1.8-2.2c1.8-1.4,3.9-2,6-2c4.2,0,7.5-2.1,10.6-4.6c2.6-2.2,4.9-4.8,7.2-7.3c1.2-1.3,2.5-2.7,3.8-3.9
			c2-1.9,4.3-3.2,7.1-3.7C-553.3,57.1-551.9,57.1-550.5,57.1z"/>
	</g>
</g>
<path class="st3" d="M-413.8,77.7c0-24.1-19.6-43.7-43.7-43.7c-24.1,0-43.7,19.6-43.7,43.7c0,24.1,19.6,43.7,43.7,43.7
	c5.1,0,10-0.9,14.6-2.5l0,0l19.4,4.6l-5.5-12.7C-419.7,102.9-413.8,91-413.8,77.7z"/>
<circle class="st0" cx="-457.5" cy="77.7" r="34"/>
<g>
	<g>
		<path class="st3" d="M-441.6,59c2.6,0.6,5,1.8,6.8,4c-2.5-1.5-5.1-2.1-8-1.5c-2.9,0.6-5.1,2.2-6.7,4.7c-2.3,3.7-1.9,8.6,0.9,12
			c3.2,3.8,7.5,4.5,13.3,2.2c0,0.4-0.3,0.5-0.5,0.7c-2.4,2.3-5.4,2.8-8.5,3.2c-3.1,0.4-6.1,0.7-9.2,1.2c-6,0.9-10.9,3.8-15,8.2
			c-1.9,2-4.2,3-7,2.9c-0.3,0-0.6,0.1-0.9-0.3c3.6-0.6,6.2-2.4,7.1-6c0.5-2,0.2-4-0.9-5.8c-2.4-4.1-6.7-4.7-12-1.6
			c0.4-1,1.1-1.6,1.8-2.2c1.8-1.4,3.9-2,6-2c4.2,0,7.5-2.1,10.6-4.6c2.6-2.2,4.9-4.8,7.2-7.3c1.2-1.3,2.5-2.7,3.8-3.9
			c2-1.9,4.3-3.2,7.1-3.7C-444.3,59-442.9,59-441.6,59z"/>
	</g>
</g>
<path class="st3" d="M-413.8,77.7c0-24.1-19.6-43.7-43.7-43.7c-24.1,0-43.7,19.6-43.7,43.7c0,24.1,19.6,43.7,43.7,43.7
	c5.1,0,10-0.9,14.6-2.5l0,0l19.4,4.6l-5.5-12.7C-419.7,102.9-413.8,91-413.8,77.7z"/>
<circle class="st0" cx="-457.5" cy="77.7" r="34"/>
<g>
	<g>
		<path class="st3" d="M-441.6,59c2.6,0.6,5,1.8,6.8,4c-2.5-1.5-5.1-2.1-8-1.5c-2.9,0.6-5.1,2.2-6.7,4.7c-2.3,3.7-1.9,8.6,0.9,12
			c3.2,3.8,7.5,4.5,13.3,2.2c0,0.4-0.3,0.5-0.5,0.7c-2.4,2.3-5.4,2.8-8.5,3.2c-3.1,0.4-6.1,0.7-9.2,1.2c-6,0.9-10.9,3.8-15,8.2
			c-1.9,2-4.2,3-7,2.9c-0.3,0-0.6,0.1-0.9-0.3c3.6-0.6,6.2-2.4,7.1-6c0.5-2,0.2-4-0.9-5.8c-2.4-4.1-6.7-4.7-12-1.6
			c0.4-1,1.1-1.6,1.8-2.2c1.8-1.4,3.9-2,6-2c4.2,0,7.5-2.1,10.6-4.6c2.6-2.2,4.9-4.8,7.2-7.3c1.2-1.3,2.5-2.7,3.8-3.9
			c2-1.9,4.3-3.2,7.1-3.7C-444.3,59-442.9,59-441.6,59z"/>
	</g>
</g>
<g>
	<path class="st3" d="M-182.5,77.6c0-25.9-21-46.9-46.9-46.9c-25.9,0-46.9,21-46.9,46.9c0,25.9,21,46.9,46.9,46.9
		c5.5,0,10.8-1,15.7-2.7l0,0l20.8,5l-5.9-13.6C-188.8,104.7-182.5,91.9-182.5,77.6z"/>
	<circle class="st0" cx="-229.4" cy="77.7" r="34"/>
	<g>
		<g>
			<path class="st1" d="M-213.5,59c2.6,0.6,5,1.8,6.8,4c-2.5-1.5-5.1-2.1-8-1.5c-2.9,0.6-5.1,2.2-6.7,4.7c-2.3,3.7-1.9,8.6,0.9,12
				c3.2,3.8,7.5,4.5,13.3,2.2c0,0.4-0.3,0.5-0.5,0.7c-2.4,2.3-5.4,2.8-8.5,3.2c-3.1,0.4-6.1,0.7-9.2,1.2c-6,0.9-10.9,3.8-15,8.2
				c-1.9,2-4.2,3-7,2.9c-0.3,0-0.6,0.1-0.9-0.3c3.6-0.6,6.2-2.4,7.1-6c0.5-2,0.2-4-0.9-5.8c-2.4-4.1-6.7-4.7-12-1.6
				c0.4-1,1.1-1.6,1.8-2.2c1.8-1.4,3.9-2,6-2c4.2,0,7.5-2.1,10.6-4.6c2.6-2.2,4.9-4.8,7.2-7.3c1.2-1.3,2.5-2.7,3.8-3.9
				c2-1.9,4.3-3.2,7.1-3.7C-216.2,59-214.8,59-213.5,59z"/>
		</g>
	</g>
</g>
<path class="st1" d="M-304.8,77.7c0-24.1-19.6-43.7-43.7-43.7c-24.1,0-43.7,19.6-43.7,43.7c0,24.1,19.6,43.7,43.7,43.7
	c5.1,0,10-0.9,14.6-2.5l0,0l19.4,4.6l-5.5-12.7C-310.8,102.9-304.8,91-304.8,77.7z"/>
<circle class="st0" cx="-348.5" cy="77.7" r="34"/>
<g>
	<g>
		<path class="st1" d="M-332.6,59c2.6,0.6,5,1.8,6.8,4c-2.5-1.5-5.1-2.1-8-1.5c-2.9,0.6-5.1,2.2-6.7,4.7c-2.3,3.7-1.9,8.6,0.9,12
			c3.2,3.8,7.5,4.5,13.3,2.2c0,0.4-0.3,0.5-0.5,0.7c-2.4,2.3-5.4,2.8-8.5,3.2c-3.1,0.4-6.1,0.7-9.2,1.2c-6,0.9-10.9,3.8-15,8.2
			c-1.9,2-4.2,3-7,2.9c-0.3,0-0.6,0.1-0.9-0.3c3.6-0.6,6.2-2.4,7.1-6c0.5-2,0.2-4-0.9-5.8c-2.4-4.1-6.7-4.7-12-1.6
			c0.4-1,1.1-1.6,1.8-2.2c1.8-1.4,3.9-2,6-2c4.2,0,7.5-2.1,10.6-4.6c2.6-2.2,4.9-4.8,7.2-7.3c1.2-1.3,2.5-2.7,3.8-3.9
			c2-1.9,4.3-3.2,7.1-3.7C-335.4,59-334,59-332.6,59z"/>
	</g>
</g>
<text transform="matrix(1 0 0 1 -574.5173 169.4994)" style="font-family:'MyriadPro-Regular'; font-size:30.3211px;">1</text>
<text transform="matrix(1 0 0 1 -463.4164 169.4994)" style="font-family:'MyriadPro-Regular'; font-size:30.3211px;">2</text>
<text transform="matrix(1 0 0 1 -352.845 169.4994)" style="font-family:'MyriadPro-Regular'; font-size:30.3211px;">3</text>
<text transform="matrix(1 0 0 1 -230.4013 169.4994)" style="font-family:'MyriadPro-Regular'; font-size:30.3211px;">4</text>
<g>
	<path class="st3" d="M233.5,116.7C233.5,52.3,181.2,0,116.7,0C52.3,0,0,52.3,0,116.7c0,64.5,52.3,116.7,116.7,116.7
		c13.7,0,26.8-2.4,39-6.7l0,0l51.7,12.4l-14.8-33.8C217.6,184,233.5,152.2,233.5,116.7z"/>
	<circle class="st0" cx="116.7" cy="116.9" r="84.5"/>
	<g>
		<g>
			<path class="st1" d="M156.4,70.3c6.5,1.6,12.4,4.4,16.8,9.8c-6.2-3.8-12.8-5.3-19.9-3.8c-7.2,1.5-12.8,5.5-16.7,11.7
				c-5.8,9.3-4.8,21.4,2.3,29.9c7.8,9.4,18.6,11.2,33.1,5.5c0.1,0.9-0.7,1.2-1.1,1.6c-6,5.6-13.5,7-21.2,7.9
				c-7.6,0.9-15.3,1.8-22.9,3c-14.8,2.3-27.1,9.5-37.3,20.3c-4.8,5.1-10.6,7.5-17.5,7.2c-0.7,0-1.5,0.2-2.3-0.9
				c9-1.4,15.4-6,17.6-15c1.2-5,0.5-9.9-2.2-14.4c-6.1-10.2-16.6-11.7-29.9-4c0.9-2.6,2.7-4.1,4.4-5.5c4.4-3.5,9.6-4.9,15-5
				c10.5-0.1,18.7-5.1,26.3-11.5c6.6-5.5,12.1-12,17.9-18.2c3.1-3.3,6.2-6.6,9.5-9.7c5-4.7,10.8-7.9,17.6-9.1
				C151.5,69.3,154.9,70,156.4,70.3z"/>
		</g>
	</g>
</g>
</svg>
